<svg version="1.1" viewBox="0.0 0.0 960.0 720.0" fill="none" stroke="none" stroke-linecap="square" stroke-miterlimit="10" xmlns:xlink="http://www.w3.org/1999/xlink" xmlns="http://www.w3.org/2000/svg"><clipPath id="p.0"><path d="m0 0l960.0 0l0 720.0l-960.0 0l0 -720.0z" clip-rule="nonzero"/></clipPath><g clip-path="url(#p.0)"><path fill="#000000" fill-opacity="0.0" d="m0 0l960.0 0l0 720.0l-960.0 0z" fill-rule="evenodd"/><path fill="#9900ff" d="m311.52386 180.30559c-26.682678 17.115723 -25.949371 87.21651 0 104.87819c25.949371 17.661652 129.01358 18.207611 155.69626 1.0918884c26.682678 -17.115723 30.349213 -86.1246 4.3998413 -103.786285c-25.949371 -17.661682 -133.41342 -19.29953 -160.0961 -2.183792z" fill-rule="evenodd"/><path stroke="#000000" stroke-width="1.0" stroke-linejoin="round" stroke-linecap="butt" d="m311.52386 180.30559c-26.682678 17.115723 -25.949371 87.21651 0 104.87819c25.949371 17.661652 129.01358 18.207611 155.69626 1.0918884c26.682678 -17.115723 30.349213 -86.1246 4.3998413 -103.786285c-25.949371 -17.661682 -133.41342 -19.29953 -160.0961 -2.183792z" fill-rule="evenodd"/><g mask="url(#mask-p.1)"><use xlink:href="#p.1" transform="matrix(1.0 0.0 0.0 -1.0 0.0 534.2787816272966)"/></g><defs><mask id="mask-p.1" maskUnits="userSpaceOnUse" x="322.8922503937008" y="261.1393908136483" width="63.457278740157506" height="89.98068503937009"><linearGradient gradientUnits="userSpaceOnUse" id="gradient-p.1" x1="328.8922503943751" y1="269.1392045388099" x2="328.8921939363782" y2="284.73537903384835"><stop offset="0%" stop-color="#ffffff" stop-opacity="1.0"/><stop offset="100%" stop-color="#ffffff" stop-opacity="0.0"/></linearGradient><rect fill="url(#gradient-p.1)" x="322.8922503937008" y="261.1393908136483" width="63.457278740157506" height="89.98068503937009"/></mask></defs><g id="p.1"><g filter="url(#shadowFilter-p.2)"><use xlink:href="#p.2" transform="matrix(1.0 0.0 0.0 1.0 0.0 2.0)"/></g><defs><filter id="shadowFilter-p.2" filterUnits="userSpaceOnUse"><feGaussianBlur in="SourceAlpha" stdDeviation="2.0" result="blur"/><feComponentTransfer in="blur" color-interpolation-filters="sRGB"><feFuncR type="linear" slope="0" intercept="0.0"/><feFuncG type="linear" slope="0" intercept="0.0"/><feFuncB type="linear" slope="0" intercept="0.0"/><feFuncA type="linear" slope="0.5" intercept="0"/></feComponentTransfer></filter></defs><g id="p.2"><path fill="#00ffff" d="m379.84952 264.6394l-1.0498657 -76.9807l-49.40741 76.9807z" fill-rule="evenodd"/><path stroke="#000000" stroke-width="1.0" stroke-linejoin="round" stroke-linecap="butt" d="m379.84952 264.6394l-1.0498657 -76.9807l-49.40741 76.9807z" fill-rule="evenodd"/></g></g><g mask="url(#mask-p.3)"><use xlink:href="#p.3" transform="matrix(1.0 0.0 0.0 -1.0 0.0 534.2787816272966)"/></g><defs><mask id="mask-p.3" maskUnits="userSpaceOnUse" x="306.24967611548556" y="261.1393908136483" width="63.45727874015745" height="89.98068503937009"><linearGradient gradientUnits="userSpaceOnUse" id="gradient-p.3" x1="312.2496761161599" y1="269.1392045388099" x2="312.249619658163" y2="284.73537903384835"><stop offset="0%" stop-color="#ffffff" stop-opacity="1.0"/><stop offset="100%" stop-color="#ffffff" stop-opacity="0.0"/></linearGradient><rect fill="url(#gradient-p.3)" x="306.24967611548556" y="261.1393908136483" width="63.45727874015745" height="89.98068503937009"/></mask></defs><g id="p.3"><g filter="url(#shadowFilter-p.4)"><use xlink:href="#p.4" transform="matrix(1.0 0.0 0.0 1.0 0.0 2.0)"/></g><defs><filter id="shadowFilter-p.4" filterUnits="userSpaceOnUse"><feGaussianBlur in="SourceAlpha" stdDeviation="2.0" result="blur"/><feComponentTransfer in="blur" color-interpolation-filters="sRGB"><feFuncR type="linear" slope="0" intercept="0.0"/><feFuncG type="linear" slope="0" intercept="0.0"/><feFuncB type="linear" slope="0" intercept="0.0"/><feFuncA type="linear" slope="0.5" intercept="0"/></feComponentTransfer></filter></defs><g id="p.4"><path fill="#00ffff" d="m312.74966 264.6394l1.0498657 -76.9807l49.40741 76.9807z" fill-rule="evenodd"/><path stroke="#000000" stroke-width="1.0" stroke-linejoin="round" stroke-linecap="butt" d="m312.74966 264.6394l1.0498657 -76.9807l49.40741 76.9807z" fill-rule="evenodd"/></g></g><g mask="url(#mask-p.5)"><use xlink:href="#p.5" transform="matrix(1.0 0.0 0.0 -1.0 0.0 534.476458792651)"/></g><defs><mask id="mask-p.5" maskUnits="userSpaceOnUse" x="377.3701367454068" y="261.2382293963255" width="56.18998530183734" height="90.76930419947507"><linearGradient gradientUnits="userSpaceOnUse" id="gradient-p.5" x1="383.3701367459859" y1="269.2380694290172" x2="383.3700626083722" y2="289.71812936090834"><stop offset="0%" stop-color="#ffffff" stop-opacity="1.0"/><stop offset="100%" stop-color="#ffffff" stop-opacity="0.0"/></linearGradient><rect fill="url(#gradient-p.5)" x="377.3701367454068" y="261.2382293963255" width="56.18998530183734" height="90.76930419947507"/></mask></defs><g id="p.5"><g filter="url(#shadowFilter-p.6)"><use xlink:href="#p.6" transform="matrix(1.0 0.0 0.0 1.0 0.0 2.0)"/></g><defs><filter id="shadowFilter-p.6" filterUnits="userSpaceOnUse"><feGaussianBlur in="SourceAlpha" stdDeviation="2.0" result="blur"/><feComponentTransfer in="blur" color-interpolation-filters="sRGB"><feFuncR type="linear" slope="0" intercept="0.0"/><feFuncG type="linear" slope="0" intercept="0.0"/><feFuncB type="linear" slope="0" intercept="0.0"/><feFuncA type="linear" slope="0.5" intercept="0"/></feComponentTransfer></filter></defs><g id="p.6"><path fill="#00ffff" d="m427.06012 215.94485l-42.37384 48.793365l-0.8161316 -77.7693z" fill-rule="evenodd"/><path stroke="#000000" stroke-width="1.0" stroke-linejoin="round" stroke-linecap="butt" d="m427.06012 215.94485l-42.37384 48.793365l-0.8161316 -77.7693z" fill-rule="evenodd"/></g></g><g filter="url(#shadowFilter-p.7)"><use xlink:href="#p.7" transform="matrix(1.0 0.0 0.0 1.0 0.0 2.0)"/></g><defs><filter id="shadowFilter-p.7" filterUnits="userSpaceOnUse"><feGaussianBlur in="SourceAlpha" stdDeviation="2.0" result="blur"/><feComponentTransfer in="blur" color-interpolation-filters="sRGB"><feFuncR type="linear" slope="0" intercept="0.0"/><feFuncG type="linear" slope="0" intercept="0.0"/><feFuncB type="linear" slope="0" intercept="0.0"/><feFuncA type="linear" slope="0.5" intercept="0"/></feComponentTransfer></filter></defs><g id="p.7"><path fill="#9900ff" d="m408.28387 229.04836l0 0c2.348297 -2.7657623 1.2907104 -6.9679413 -2.3622131 -9.3858185l0 0c-3.652893 -2.4178772 -8.517853 -2.135849 -10.86615 0.62991333l0 0c-2.348297 2.7657776 -1.2906799 6.9679565 2.3622131 9.385834l0 0c3.6529236 2.4178772 8.517853 2.135849 10.86615 -0.6299286z" fill-rule="evenodd"/><path stroke="#000000" stroke-width="1.0" stroke-linejoin="round" stroke-linecap="butt" d="m408.28387 229.04836l0 0c2.348297 -2.7657623 1.2907104 -6.9679413 -2.3622131 -9.3858185l0 0c-3.652893 -2.4178772 -8.517853 -2.135849 -10.86615 0.62991333l0 0c-2.348297 2.7657776 -1.2906799 6.9679565 2.3622131 9.385834l0 0c3.6529236 2.4178772 8.517853 2.135849 10.86615 -0.6299286z" fill-rule="evenodd"/></g><g filter="url(#shadowFilter-p.8)"><use xlink:href="#p.8" transform="matrix(1.0 0.0 0.0 1.0 0.0 2.0)"/></g><defs><filter id="shadowFilter-p.8" filterUnits="userSpaceOnUse"><feGaussianBlur in="SourceAlpha" stdDeviation="2.0" result="blur"/><feComponentTransfer in="blur" color-interpolation-filters="sRGB"><feFuncR type="linear" slope="0" intercept="0.0"/><feFuncG type="linear" slope="0" intercept="0.0"/><feFuncB type="linear" slope="0" intercept="0.0"/><feFuncA type="linear" slope="0.5" intercept="0"/></feComponentTransfer></filter></defs><g id="p.8"><path fill="#00ffff" d="m423.62366 189.70915l49.40741 -1.3728943l0 21.993195l-49.40741 0z" fill-rule="evenodd"/><path stroke="#000000" stroke-width="1.0" stroke-linejoin="round" stroke-linecap="butt" d="m423.62366 189.70915l49.40741 -1.3728943l0 21.993195l-49.40741 0z" fill-rule="evenodd"/></g><g mask="url(#mask-p.9)"><use xlink:href="#p.9" transform="matrix(1.0 0.0 0.0 -1.0 0.0 532.8884881889763)"/></g><defs><mask id="mask-p.9" maskUnits="userSpaceOnUse" x="434.9969359580052" y="260.44424409448817" width="25.61431968503939" height="65.23572598425199"><linearGradient gradientUnits="userSpaceOnUse" id="gradient-p.9" x1="440.99693595818366" y1="268.44419481078603" x2="440.9968781442879" y2="284.41492802558287"><stop offset="0%" stop-color="#ffffff" stop-opacity="1.0"/><stop offset="100%" stop-color="#ffffff" stop-opacity="0.0"/></linearGradient><rect fill="url(#gradient-p.9)" x="434.9969359580052" y="260.44424409448817" width="25.61431968503939" height="65.23572598425199"/></mask></defs><g id="p.9"><g filter="url(#shadowFilter-p.10)"><use xlink:href="#p.10" transform="matrix(1.0 0.0 0.0 1.0 0.0 2.0)"/></g><defs><filter id="shadowFilter-p.10" filterUnits="userSpaceOnUse"><feGaussianBlur in="SourceAlpha" stdDeviation="2.0" result="blur"/><feComponentTransfer in="blur" color-interpolation-filters="sRGB"><feFuncR type="linear" slope="0" intercept="0.0"/><feFuncG type="linear" slope="0" intercept="0.0"/><feFuncB type="linear" slope="0" intercept="0.0"/><feFuncA type="linear" slope="0.5" intercept="0"/></feComponentTransfer></filter></defs><g id="p.10"><path fill="#00ffff" d="m442.5468 211.70851l-1.0498657 52.235733l12.614319 0l0 -52.235733z" fill-rule="evenodd"/><path stroke="#000000" stroke-width="1.0" stroke-linejoin="round" stroke-linecap="butt" d="m442.5468 211.70851l-1.0498657 52.235733l12.614319 0l0 -52.235733z" fill-rule="evenodd"/></g></g></g></svg>